<svg data-v-70b83f88="" version="1.0" xmlns="http://www.w3.org/2000/svg" xmlns:xlink="http://www.w3.org/1999/xlink" width="100%" height="100%" viewBox="0 0 340.000000 250.000000" preserveAspectRatio="xMidYMid meet" color-interpolation-filters="sRGB" style="margin: auto;">   <g data-v-70b83f88="" fill="#1b4a9c" class="icon-text-wrapper icon-svg-group iconsvg" transform="translate(122.5,63.70673751831055)"><g class="iconsvg-imagesvg" transform="translate(0,0)"><g><rect fill="#1b4a9c" fill-opacity="0" stroke-width="2" x="0" y="0" width="95" height="90.94651387652335" class="image-rect"></rect> <svg x="0" y="0" width="95" height="90.94651387652335" filtersec="colorsb1892756133" class="image-svg-svg primary" style="overflow: visible;"><svg xmlns="http://www.w3.org/2000/svg" viewBox="-0.004363085608929396 -0.0019378167344257236 99.56594848632812 95.31719207763672"><title>资源 53</title><path d="M75.22 65.07c.3.38.73.24 1.11.24h21.29c1.83 0 1.89.06 1.9 1.89v7.09c0 1.1-.43 1.52-1.5 1.48H42.71c-2.56 0-3.48.72-4.11 3.25a26.29 26.29 0 0 1-1.29 3.1c-.78 2-.39 2.66 1.76 2.66h58.81c1.09 0 1.64.42 1.64 1.56v7.33a1.14 1.14 0 0 1-1.23 1.29H36.47c-1.8 0-3.6.25-5.39.32-2.95.11-5.92-.06-8.88-.2-1 0-1.48-.83-1-1.85 1.08-2.17 1.57-4.54 2.55-6.73.91-2 1.59-4.17 2.39-6.25.94-2.46 1.91-4.92 2.83-7.38.85-2.24 1.53-4.55 2.5-6.73 1.09-2.45 1.78-5 2.86-7.49.78-1.78 1.5-3.62 2.11-5.48.87-2.62 2-5.14 2.88-7.75.82-2.37 1.78-4.69 2.68-7s1.57-4.62 2.61-6.83c.18-.38.53-.73.3-1.22a3.82 3.82 0 0 1 2.33-1c2.28.05 4.57 0 6.86 0a2.05 2.05 0 0 1 2 2.51 16.06 16.06 0 0 1-1 3.07c-.88 2.13-1.69 4.3-2.51 6.47-1 2.54-1.88 5.09-2.84 7.63-.77 2-1.64 4-2.35 6-1 2.79-2 5.58-3.15 8.29-.6 1.4-.24 2.1 1.29 2.13h7.34a2.76 2.76 0 0 0 1.51-.3 64 64 0 0 0 9.39 0 7.4 7.4 0 0 0 1 .26 50.94 50.94 0 0 0 8.82.09 2.15 2.15 0 0 0 1.62-.45z" fill="#1b4a9c"></path><path d="M54.41 65.16a2.76 2.76 0 0 1-1.51.3h-7.34c-1.53 0-1.89-.73-1.29-2.13 1.18-2.71 2.18-5.5 3.15-8.29.71-2 1.58-4 2.35-6 1-2.54 1.88-5.09 2.84-7.63.82-2.17 1.63-4.34 2.51-6.47a16.06 16.06 0 0 0 1-3.07 2.05 2.05 0 0 0-2-2.51h-6.86a3.82 3.82 0 0 0-2.33 1h-8.36a5.09 5.09 0 0 0-.93.18 2.28 2.28 0 0 0-2.15-1.05h-6.85a3 3 0 0 0-2.48.94 8.17 8.17 0 0 0-2.26-.19H2.06C.13 30.16 0 30 0 28.12v-5.65c0-3.06-.24-2.9 2.84-2.9h51.85c1.48 0 3 0 4.45.07 1.26.05 1.47-1 1.79-1.8.84-2 1.52-4.1 2.26-6.15.45-1.25.27-1.46-1.07-1.36-.8.05-1.61 0-2.41 0H1.37A1 1 0 0 1 .24 9.22V1.64a.88.88 0 0 1 1-1h62.57c4.35 0 8.7-.17 13-.16 1.86 0 1.87.12 1.21 1.79-1.06 2.67-1.92 5.41-3 8.06-1.18 2.82-2.13 5.72-3.33 8.54-1 2.36-1.81 4.82-2.69 7.25C68.32 28 67.55 30 66.8 32s-1.4 3.64-2.08 5.46c-.75 2-1.47 4-2.21 5.94-1 2.72-2.06 5.44-3.1 8.15-.72 1.9-1.57 3.76-2.18 5.7-.83 2.65-2.23 5.12-2.82 7.91zM75.22 65.07a2.15 2.15 0 0 1-1.57.44 50.94 50.94 0 0 1-8.82-.09 7.4 7.4 0 0 1-1-.26C64.18 63 65.24 61 66 58.9c.63-1.8 1.38-3.54 2-5.33.78-2.11 1.57-4.23 2.41-6.32.77-1.91 1.4-3.88 2.12-5.81s1.37-3.71 2.17-5.52c.43-1 .7-2 1.11-3 1.23-3 2.3-6 3.42-9 .72-1.91 1.51-3.81 2.1-5.79.51-1.68 1.33-3.29 1.94-5C84 11.08 84.74 9 85.61 6.94s1.32-4 2.33-5.85A2 2 0 0 1 89.81 0h8.55c1.06 0 1.49.74 1 1.71A65.27 65.27 0 0 0 96.91 8c-1 2.68-2.12 5.29-3.14 8-.72 1.88-1.32 3.81-2 5.7s-1.6 3.81-2.25 5.76-1.39 3.53-2 5.31c-.76 2-1.48 4.1-2.33 6.11-.76 1.79-1.33 3.65-2 5.47-.77 2-1.59 4-2.36 6.09-.7 1.81-1.37 3.63-2 5.45s-1.47 3.94-2.21 5.91z" fill="#e9945b"></path><path d="M24.17 30.36a3 3 0 0 1 2.48-.94h6.85a2.28 2.28 0 0 1 2.15 1.05c-.87 3.58-2.52 6.89-3.71 10.35-1.32 3.82-2.82 7.56-4.23 11.34-.87 2.34-1.73 4.72-2.69 7-1 2.51-2 5.06-2.87 7.62-1.13 3.2-2.32 6.38-3.6 9.53-1.44 3.54-2.74 7.15-4.09 10.72a44.76 44.76 0 0 0-2.28 6.31A1.92 1.92 0 0 1 10.44 95a53 53 0 0 1-9 0c-1.08 0-1.39-.77-.98-1.77 1.78-4.32 3.31-8.73 5-13.08C6.29 78 7 75.79 8 73.67s1.67-4.57 2.52-6.85 1.69-4.31 2.51-6.47c1.13-3 2.14-6 3.37-9 1.48-3.54 2.73-7.16 4.15-10.72 1.27-3.18 2.29-6.46 3.66-9.61a.75.75 0 0 0-.04-.66z" fill="#1b4a9c"></path></svg></svg> <!----></g></g> <g transform="translate(8.459999084472656,97.94651794433594)"><g data-gra="path-name" fill-rule="" class="tp-name iconsvg-namesvg"><g transform="scale(1)"><g><path d="M1.7 0L1.7-4.35 12.64-17.82 12.61-18.02 2.3-18.02 2.3-22.21 18.62-22.21 18.62-18.02 7.55-4.42 7.55-4.22 19.46-4.22 19.46 0 1.7 0ZM32.96-17.6L32.96-17.6Q35.07-17.6 36.4-16.98 37.73-16.35 38.5-15.18 39.26-14.02 39.55-12.35 39.84-10.69 39.84-8.64L39.84-8.64Q39.84-6.78 39.55-5.15 39.26-3.52 38.5-2.3 37.73-1.09 36.4-0.38 35.07 0.32 32.96 0.32L32.96 0.32Q31.71 0.32 30.83 0.13 29.95-0.06 29.33-0.43 28.7-0.8 28.3-1.3 27.9-1.79 27.65-2.43L27.65-2.43 27.33 0 23.1 0 23.1-24.32 27.74-24.32 27.74-15.2Q28.26-16.16 29.47-16.88 30.69-17.6 32.96-17.6ZM31.49-3.2L31.49-3.2Q32.67-3.2 33.39-3.63 34.11-4.06 34.5-4.8 34.88-5.54 34.99-6.53 35.1-7.52 35.1-8.64L35.1-8.64Q35.1-9.82 34.98-10.83 34.85-11.84 34.46-12.58 34.08-13.31 33.38-13.73 32.67-14.14 31.49-14.14L31.49-14.14Q30.3-14.14 29.54-13.78 28.77-13.41 28.3-12.7 27.84-12 27.66-10.98 27.49-9.95 27.49-8.64L27.49-8.64Q27.49-7.39 27.66-6.38 27.84-5.38 28.3-4.67 28.77-3.97 29.54-3.58 30.3-3.2 31.49-3.2ZM51.2 0.32L51.2 0.32Q49.18 0.32 47.6-0.1 46.02-0.51 44.94-1.54 43.87-2.56 43.3-4.29 42.72-6.02 42.72-8.64L42.72-8.64Q42.72-11.26 43.3-12.99 43.87-14.72 44.94-15.74 46.02-16.77 47.6-17.18 49.18-17.6 51.2-17.6L51.2-17.6Q53.22-17.6 54.78-17.18 56.35-16.77 57.42-15.74 58.5-14.72 59.07-12.99 59.65-11.26 59.65-8.64L59.65-8.64Q59.65-6.02 59.07-4.29 58.5-2.56 57.42-1.54 56.35-0.51 54.78-0.1 53.22 0.32 51.2 0.32ZM51.2-3.2L51.2-3.2Q52.26-3.2 52.98-3.46 53.7-3.71 54.13-4.34 54.56-4.96 54.74-6.02 54.91-7.07 54.91-8.64L54.91-8.64Q54.91-10.21 54.72-11.26 54.53-12.32 54.1-12.96 53.66-13.6 52.96-13.87 52.26-14.14 51.2-14.14L51.2-14.14Q50.14-14.14 49.42-13.87 48.7-13.6 48.27-12.96 47.84-12.32 47.66-11.26 47.49-10.21 47.49-8.64L47.49-8.64Q47.49-7.07 47.68-6.02 47.87-4.96 48.3-4.34 48.74-3.71 49.44-3.46 50.14-3.2 51.2-3.2ZM61.38 0L67.36-8.83 61.73-17.28 67.17-17.28 70.53-11.65 70.72-11.65 74.08-17.28 79.46-17.28 73.86-8.86 79.78 0 74.27 0 70.69-5.95 70.5-5.95 66.85 0 61.38 0Z" transform="translate(-1.7000000476837158, 24.31999969482422)"></path></g> <!----> <!----> <!----> <!----> <!----> <!----> <!----></g></g> <!----></g></g><defs v-gra="od"></defs></svg>